@startuml
'https://plantuml.com/class-diagram

abstract class TextSplitter
interface DocumentTransformer
class TokenTextSplitter

DocumentTransformer <|-- TextSplitter
TextSplitter <|-- TokenTextSplitter
DocumentTransformer <|-- ContentFormatTransformer
DocumentTransformer <|-- KeywordMetadataEnricher
DocumentTransformer <|-- SummaryMetadataEnricher

@enduml